<?xml version="1.0" encoding="iso-8859-1"?>
<!-- Generator: Adobe Illustrator 19.0.0, SVG Export Plug-In . SVG Version: 6.00 Build 0)  -->
<svg version="1.1" id="Layer_1" xmlns="http://www.w3.org/2000/svg" xmlns:xlink="http://www.w3.org/1999/xlink" x="0px" y="0px"
	 viewBox="0 0 512 512" style="enable-background:new 0 0 512 512;" xml:space="preserve">
<g>
	<g>
		<path d="M277.328,0v128H448V0H277.328z M432,112H293.328V16H432V112z"/>
	</g>
</g>
<g>
	<g>
		<path d="M277.328,192v128H448V192H277.328z M432,304H293.328v-96H432V304z"/>
	</g>
</g>
<g>
	<g>
		<path d="M277.328,384v128H448V384H277.328z M432,496H293.328v-96H432V496z"/>
	</g>
</g>
<g>
	<g>
		<rect x="64" y="23.664" width="170.656" height="16"/>
	</g>
</g>
<g>
	<g>
		<rect x="64" y="87.664" width="170.656" height="16"/>
	</g>
</g>
<g>
	<g>
		<rect x="64" y="215.664" width="170.656" height="16"/>
	</g>
</g>
<g>
	<g>
		<rect x="64" y="279.664" width="170.656" height="16"/>
	</g>
</g>
<g>
	<g>
		<rect x="64" y="407.664" width="170.656" height="16"/>
	</g>
</g>
<g>
	<g>
		<rect x="64" y="471.664" width="170.656" height="16"/>
	</g>
</g>
<g>
</g>
<g>
</g>
<g>
</g>
<g>
</g>
<g>
</g>
<g>
</g>
<g>
</g>
<g>
</g>
<g>
</g>
<g>
</g>
<g>
</g>
<g>
</g>
<g>
</g>
<g>
</g>
<g>
</g>
</svg>
